<?xml version="1.0" standalone="no"?>
<!DOCTYPE svg PUBLIC "-//W3C//DTD SVG 20010904//EN"
 "http://www.w3.org/TR/2001/REC-SVG-20010904/DTD/svg10.dtd">
<svg version="1.0" xmlns="http://www.w3.org/2000/svg"
 width="1024.000000pt" height="1024.000000pt" viewBox="0 0 1024.000000 1024.000000"
 preserveAspectRatio="xMidYMid meet">

<g transform="translate(0.000000,1024.000000) scale(0.100000,-0.100000)"
fill="#000000" stroke="none">
<path d="M4895 7585 c-259 -36 -464 -90 -670 -177 -342 -144 -610 -336 -854
-612 -167 -190 -285 -366 -387 -581 -70 -149 -99 -232 -144 -420 -101 -417
-102 -822 -4 -1172 74 -266 160 -454 311 -676 171 -254 372 -467 598 -634 220
-161 530 -313 785 -382 171 -46 194 -51 374 -71 436 -50 820 -1 1216 157 328
130 574 295 830 559 140 144 178 191 305 379 180 265 302 580 344 890 38 279
37 507 -5 780 -72 470 -323 941 -691 1296 -347 335 -776 552 -1275 645 -125
23 -175 27 -388 30 -171 2 -275 -1 -345 -11z m680 -308 c356 -67 638 -192 928
-410 212 -159 360 -314 496 -519 140 -212 205 -360 265 -606 56 -228 61 -266
61 -537 0 -237 -1 -257 -29 -385 -53 -254 -133 -448 -261 -635 -38 -55 -81
-118 -96 -140 -48 -71 -231 -266 -339 -363 -288 -258 -686 -449 -1060 -510
-162 -26 -534 -23 -698 6 -617 110 -1128 465 -1504 1048 -83 128 -168 333
-212 513 -42 169 -50 238 -50 451 0 229 16 368 64 554 144 559 543 1051 1077
1328 173 90 411 170 620 208 94 17 143 19 383 16 190 -3 300 -9 355 -19z"/>
<path d="M5016 7139 c-396 -37 -794 -205 -1103 -464 -225 -189 -441 -481 -538
-730 -68 -172 -121 -432 -140 -675 -12 -172 25 -450 86 -634 44 -132 74 -194
161 -342 83 -139 143 -217 271 -350 214 -223 423 -368 697 -484 154 -65 258
-94 428 -119 356 -52 638 -32 932 66 305 102 524 239 776 485 287 281 434 514
520 826 47 174 66 311 65 484 -1 326 -56 578 -185 844 -83 172 -154 277 -273
409 -294 324 -635 534 -1033 634 -183 47 -473 68 -664 50z m1303 -1070 c61 -9
103 -22 212 -65 l47 -18 27 32 c29 35 67 42 100 18 18 -13 18 -18 0 -182 -23
-209 -24 -214 -69 -214 -43 0 -60 16 -81 79 -40 120 -225 221 -403 221 -295
-1 -523 -212 -573 -530 -15 -97 -6 -325 16 -405 58 -212 214 -397 392 -465 72
-28 243 -38 336 -21 92 18 235 91 305 156 33 30 65 55 71 55 6 0 25 -14 41
-32 33 -34 34 -58 3 -125 -36 -78 -237 -183 -410 -213 -89 -16 -308 -8 -411
14 -283 61 -521 271 -613 539 -40 115 -57 293 -41 428 27 226 181 471 373 592
104 66 246 114 409 140 53 9 208 6 269 -4z m-1643 -36 c243 -69 377 -262 345
-497 -21 -147 -115 -272 -261 -345 -45 -23 -93 -41 -106 -41 -14 0 -24 -6 -24
-14 0 -12 200 -302 284 -411 146 -191 209 -241 317 -253 l64 -7 3 -52 3 -53
-128 0 c-236 1 -293 18 -388 117 -52 54 -270 363 -344 488 -80 133 -68 125
-185 125 l-101 0 3 -242 c2 -134 7 -259 13 -279 16 -64 68 -99 145 -99 22 0
24 -4 24 -50 l0 -50 -311 0 -310 0 3 47 c3 47 3 48 45 55 54 9 87 31 115 77
l23 36 3 630 c2 600 2 632 -16 665 -22 41 -90 80 -139 80 -32 0 -33 1 -33 43
0 24 3 47 7 51 5 4 204 6 443 4 399 -4 441 -6 506 -25z"/>
<path d="M4160 5569 l0 -351 163 4 c196 5 238 19 316 104 109 119 131 318 48
439 -82 121 -168 155 -389 155 l-138 0 0 -351z"/>
<path d="M2606 5864 c-31 -22 -35 -22 -40 -6 -4 14 -5 13 -4 -3 1 -40 -2 -46
-30 -58 -16 -7 -50 -28 -75 -47 -41 -31 -46 -40 -47 -73 0 -50 -15 -77 -44
-77 -20 0 -25 -8 -35 -55 -7 -31 -18 -55 -25 -55 -14 0 -56 -45 -56 -60 0 -5
26 -10 57 -12 64 -3 77 -19 52 -65 -10 -19 -10 -26 -1 -32 13 -8 6 -41 -9 -41
-5 0 -9 -7 -9 -15 0 -8 5 -15 11 -15 5 0 7 -4 4 -10 -3 -5 -28 -10 -55 -10
-27 0 -52 -5 -56 -12 -11 -18 -16 -161 -6 -175 4 -7 36 -16 70 -19 48 -5 62
-11 62 -23 0 -22 -11 -36 -35 -45 -14 -6 -16 -10 -7 -13 11 -4 10 -8 -1 -22
-8 -9 -17 -28 -21 -43 -5 -20 -13 -28 -29 -28 -38 0 -44 -12 -50 -95 -6 -88
-18 -105 -71 -105 -36 0 -50 -8 -59 -34 -6 -15 -10 -16 -22 -6 -9 8 -15 8 -15
2 0 -6 6 -13 13 -16 10 -5 10 -7 0 -12 -16 -7 -17 -34 -2 -34 8 0 10 -14 6
-39 l-5 -40 42 -3 c34 -2 42 -7 44 -25 2 -14 10 -23 20 -23 20 0 42 -61 42
-113 0 -30 3 -33 32 -35 18 -2 35 -7 38 -11 3 -5 19 -11 35 -14 l30 -4 -32 -2
-33 -1 0 -64 0 -65 38 -4 c36 -4 36 -4 -8 -5 -92 -4 -91 -3 -88 -106 l3 -91
62 -3 c94 -4 103 3 104 96 1 42 3 69 6 60 5 -19 23 -25 23 -8 0 6 7 10 15 10
9 0 15 -9 15 -25 0 -36 21 -75 40 -75 10 0 20 -9 23 -20 6 -22 -7 -27 -73 -32
l-35 -3 -3 -97 -3 -98 81 0 80 0 0 68 c0 37 5 74 10 82 6 10 10 11 10 3 0 -7
7 -13 16 -13 8 0 12 -5 9 -11 -11 -16 3 -55 30 -88 l26 -30 -38 -6 c-64 -11
-63 -9 -63 -85 0 -86 -11 -112 -48 -109 -15 1 -41 1 -59 1 -26 -2 -30 -5 -26
-21 3 -11 19 -25 36 -31 44 -15 77 -49 77 -78 0 -14 2 -23 5 -20 6 6 14 66 14
117 1 31 3 33 29 26 15 -4 54 -13 87 -20 43 -10 51 -14 29 -14 -39 -1 -55 -19
-47 -52 l7 -24 6 25 c4 17 14 26 32 28 25 3 26 2 26 -62 l1 -66 -59 0 c-32 0
-62 -4 -65 -10 -3 -5 1 -10 9 -10 9 0 16 -7 16 -15 0 -8 9 -15 20 -15 13 0 20
-7 20 -20 0 -13 7 -20 19 -20 20 0 39 -32 22 -38 -13 -4 -15 -42 -2 -42 10 0
21 49 21 99 0 20 3 46 6 57 5 19 9 20 30 10 13 -6 24 -19 24 -28 0 -14 9 -18
40 -18 33 0 40 -3 40 -20 0 -11 4 -20 10 -20 6 0 6 9 -1 26 -10 28 -4 64 12
64 5 0 9 -40 9 -89 l0 -90 -70 -7 c-76 -7 -92 -17 -60 -34 25 -13 26 -27 3
-33 -15 -4 -16 -5 -2 -6 9 0 20 -12 23 -26 4 -14 13 -25 21 -25 8 0 15 -4 15
-10 0 -5 9 -10 20 -10 40 0 19 -19 -32 -28 l-53 -10 68 -1 67 -1 0 80 c0 74 2
80 20 80 13 0 28 -12 38 -30 9 -16 20 -30 25 -30 4 0 7 -9 7 -20 0 -13 7 -20
20 -20 21 0 45 -34 35 -50 -3 -6 -16 -10 -28 -10 -35 0 -67 -11 -67 -24 0 -12
45 -36 67 -36 7 0 20 -18 29 -40 9 -22 20 -40 26 -40 5 0 6 5 3 10 -3 6 3 10
14 10 12 0 21 -4 21 -10 0 -5 7 -10 15 -10 14 0 55 -34 55 -45 0 -3 -8 -5 -17
-6 -29 -1 16 -17 50 -18 31 -1 52 -39 42 -72 -4 -11 -2 -19 4 -19 6 0 11 5 11
10 0 6 7 10 15 10 10 0 15 -10 15 -34 0 -32 2 -34 43 -41 35 -6 38 -8 22 -15
-18 -8 -17 -9 7 -9 35 -1 41 10 47 87 l6 64 67 2 c50 1 69 -3 76 -14 14 -22
25 -115 17 -140 -6 -19 -13 -21 -58 -18 -30 2 -53 -1 -54 -7 -1 -5 7 -9 18 -8
11 2 19 -3 19 -12 0 -8 9 -15 19 -15 11 0 27 -7 35 -16 15 -14 16 -12 16 20 0
20 3 36 8 37 4 0 40 2 80 3 83 4 91 -3 93 -76 1 -24 5 -54 9 -68 8 -24 8 -24
9 -2 1 20 6 22 50 22 30 0 55 -6 64 -15 20 -20 27 -9 28 44 0 25 4 55 8 65 7
19 8 18 14 -3 4 -18 11 -22 27 -18 15 4 25 -2 37 -19 8 -13 26 -27 38 -30 14
-4 28 -20 38 -45 l15 -39 99 4 c54 2 126 7 160 11 57 7 62 10 68 35 6 29 42
44 66 29 7 -4 21 -3 31 2 27 14 55 2 62 -27 9 -35 1 -44 -42 -45 -43 -2 -107
-16 -78 -18 11 0 27 -7 35 -15 14 -13 47 -20 77 -17 7 1 14 11 18 24 5 20 12
22 83 25 43 2 81 9 85 15 3 6 6 -4 5 -22 l-2 -32 70 -5 c39 -2 76 -6 83 -9 7
-3 12 5 12 20 0 23 3 24 85 27 69 2 86 0 90 -12 4 -12 19 -14 74 -12 60 3 71
7 76 24 4 11 9 17 12 14 3 -3 22 1 42 9 20 7 53 16 73 20 23 3 49 18 71 40 24
24 44 35 65 35 16 0 41 9 56 21 21 16 26 17 26 5 0 -23 10 -25 90 -12 66 10
75 14 78 34 3 19 -1 22 -27 22 -17 0 -31 5 -31 10 0 6 11 10 24 10 13 0 27 6
29 13 3 6 6 2 6 -10 1 -20 6 -23 41 -23 36 0 40 3 40 25 0 20 5 25 24 25 42 0
73 17 87 49 13 29 45 51 74 51 8 0 15 5 15 10 0 6 11 10 24 10 14 0 28 5 31
10 5 8 11 7 21 -1 8 -6 15 -10 17 -8 1 2 7 13 13 23 6 11 21 23 35 27 13 3 45
20 70 38 26 17 54 31 63 31 9 0 16 4 16 9 0 11 66 51 84 51 19 0 53 40 35 41
-8 0 -4 4 8 9 15 6 21 15 17 25 -4 10 0 15 14 15 12 0 23 4 26 9 3 5 35 24 71
42 53 27 133 89 113 89 -3 0 -53 -29 -111 -64 -180 -111 -359 -193 -587 -272
-265 -90 -474 -124 -775 -124 -368 0 -565 31 -874 135 -320 108 -604 269 -851
483 -430 371 -711 817 -840 1332 -52 210 -63 303 -62 560 1 197 5 262 26 400
14 91 28 176 32 190 19 73 17 87 -10 92 -17 3 -38 -3 -60 -18z m-219 -871 c-3
-10 -5 -4 -5 12 0 17 2 24 5 18 2 -7 2 -21 0 -30z m76 -920 c-7 -2 -19 -2 -25
0 -7 3 -2 5 12 5 14 0 19 -2 13 -5z m330 -530 c-7 -2 -19 -2 -25 0 -7 3 -2 5
12 5 14 0 19 -2 13 -5z m509 -763 c26 0 14 -17 -17 -22 -23 -5 -25 -2 -24 31
0 33 1 34 11 14 6 -13 20 -23 30 -23z m489 -164 c5 3 12 -2 15 -10 3 -9 13
-16 22 -16 8 0 13 -3 9 -6 -3 -3 -19 -3 -36 1 -23 5 -31 12 -30 28 0 12 3 16
6 9 2 -6 9 -10 14 -6z m289 -136 c0 -5 -4 -10 -9 -10 -6 0 -13 5 -16 10 -3 6
1 10 9 10 9 0 16 -4 16 -10z m848 -57 c3 -22 0 -23 -66 -23 -65 0 -70 2 -65
19 6 22 29 29 88 27 33 -1 41 -5 43 -23z"/>
<path d="M2208 5299 c-1 -34 0 -63 5 -66 4 -2 7 25 7 61 0 36 -2 66 -4 66 -2
0 -6 -27 -8 -61z"/>
<path d="M2145 5020 c-17 -7 -17 -9 -2 -9 18 -1 23 -25 18 -88 -2 -36 15 -77
29 -68 5 3 11 1 15 -5 15 -24 23 5 24 90 l2 90 -33 -1 c-18 0 -42 -4 -53 -9z"/>
<path d="M1968 4453 c12 -2 30 -2 40 0 9 3 -1 5 -23 4 -22 0 -30 -2 -17 -4z"/>
<path d="M2030 4450 c0 -5 5 -10 10 -10 6 0 10 5 10 10 0 6 -4 10 -10 10 -5 0
-10 -4 -10 -10z"/>
<path d="M2035 4310 c-3 -5 -1 -10 4 -10 6 0 11 5 11 10 0 6 -2 10 -4 10 -3 0
-8 -4 -11 -10z"/>
<path d="M2145 4280 c-3 -6 5 -10 19 -10 21 0 26 -6 32 -35 8 -46 -3 -106 -24
-122 -15 -11 -13 -12 14 -13 l32 0 -3 88 c-2 48 -3 90 -4 95 -1 11 -59 9 -66
-3z"/>
<path d="M2358 3693 c6 -2 18 -2 25 0 6 3 1 5 -13 5 -14 0 -19 -2 -12 -5z"/>
<path d="M2582 3220 c0 -14 2 -19 5 -12 2 6 2 18 0 25 -3 6 -5 1 -5 -13z"/>
<path d="M3989 2368 c19 -5 45 -8 58 -5 15 3 23 -1 23 -9 0 -8 5 -14 10 -14
16 0 11 27 -6 34 -9 3 -39 6 -67 5 -51 -1 -52 -1 -18 -11z"/>
</g>
</svg>
